<svg xmlns="http://www.w3.org/2000/svg" width="170" height="169" viewBox="0 0 170 169" fill="none">
  <path d="M84.346 0C41.2093 0 43.9013 18.8124 43.9013 18.8124L43.9544 38.303H85.1159V44.1502H27.595C27.595 44.1502 0 40.9997 0 84.7761C0 128.542 24.0905 126.993 24.0905 126.993H38.4694V106.68C38.4694 106.68 37.6942 82.4532 62.1776 82.4532H102.999C102.999 82.4532 125.938 82.827 125.938 60.1592V22.6785C125.938 22.6785 129.421 0 84.346 0ZM61.6467 13.1041C63.6112 13.1041 65.4952 13.8889 66.8843 15.2859C68.2734 16.6829 69.0538 18.5776 69.0538 20.5532C69.0538 22.5289 68.2734 24.4236 66.8843 25.8206C65.4952 27.2176 63.6112 28.0024 61.6467 28.0024C60.6735 28.0038 59.7097 27.8121 58.8104 27.4382C57.9111 27.0643 57.094 26.5157 56.4059 25.8237C55.7178 25.1317 55.1722 24.31 54.8005 23.4056C54.4287 22.5011 54.2381 21.5319 54.2395 20.5532C54.2395 16.4362 57.5528 13.1041 61.6467 13.1041Z" fill="url(#paint0_linear_111_5)"/>
  <path d="M85.654 169C128.791 169 126.099 150.335 126.099 150.335L126.046 130.997H84.8841V125.196H142.4C142.4 125.196 170 128.321 170 84.8933C170 41.465 145.909 43.0068 145.909 43.0068H131.531V63.1553C131.531 63.1553 132.306 87.1926 107.822 87.1926H67.0007C67.0007 87.1926 44.0624 86.8218 44.0624 109.312V146.499C44.0624 146.499 40.5792 169 85.654 169ZM108.353 155.999C107.38 156 106.416 155.81 105.517 155.439C104.618 155.068 103.801 154.524 103.113 153.837C102.424 153.15 101.879 152.335 101.507 151.438C101.135 150.54 100.945 149.579 100.946 148.608C100.947 147.148 101.382 145.72 102.196 144.507C103.01 143.293 104.166 142.347 105.518 141.789C106.87 141.23 108.358 141.085 109.793 141.37C111.229 141.655 112.547 142.358 113.582 143.391C114.617 144.423 115.322 145.739 115.607 147.171C115.893 148.603 115.747 150.088 115.187 151.437C114.628 152.786 113.68 153.94 112.464 154.752C111.247 155.564 109.817 155.998 108.353 155.999Z" fill="url(#paint1_linear_111_5)"/>
  <defs>
    <linearGradient id="paint0_linear_111_5" x1="16.3276" y1="14.8556" x2="100.821" y2="99.154" gradientUnits="userSpaceOnUse">
      <stop stop-color="#387EB8"/>
      <stop offset="1" stop-color="#366994"/>
    </linearGradient>
    <linearGradient id="paint1_linear_111_5" x1="68.0998" y1="68.5964" x2="158.143" y2="155.053" gradientUnits="userSpaceOnUse">
      <stop stop-color="#FFE052"/>
      <stop offset="1" stop-color="#FFC331"/>
    </linearGradient>
  </defs>
</svg>